<?xml version="1.0" encoding="utf-8"?>
<!-- Generator: Adobe Illustrator 17.0.0, SVG Export Plug-In . SVG Version: 6.00 Build 0)  -->
<!DOCTYPE svg PUBLIC "-//W3C//DTD SVG 1.1//EN" "http://www.w3.org/Graphics/SVG/1.1/DTD/svg11.dtd">
<svg version="1.1" xmlns="http://www.w3.org/2000/svg" xmlns:xlink="http://www.w3.org/1999/xlink" x="0px" y="0px"
	 width="565.799px" height="373.8px" viewBox="0 0 565.799 373.8" enable-background="new 0 0 565.799 373.8" xml:space="preserve">
<g id="Layer_7" display="none">
	<rect x="-95.101" y="-167.275" display="inline" fill="#010101" width="753" height="720"/>
</g>
<g id="Layer_8">
	<path fill="#FFFFFF" d="M565.799,43.711c-0.001-0.377-0.214-0.721-0.55-0.89L536.773,28.46l-5.768-2.933
		c-0.289-0.146-0.63-0.144-0.917,0.006l-15.652,8.206l-0.001-15.05c0-0.231,0.011-0.864,0.011-1.012
		c0-0.379-0.348-0.749-0.687-0.919L480.548,0.106c-0.283-0.143-0.617-0.141-0.901,0.002l-84.16,42.715
		c-0.335,0.17-0.547,0.515-0.547,0.891c0,0.184,0.051,0.358,0.141,0.51c-0.048,0.083-0.093,0.168-0.116,0.264
		c-0.019,0.081-0.027,0.164-0.026,0.246v46.761l2,1.009V46.346l82.699,42.141v82.068l-45.805-23.341v2.245l46.351,23.619
		c0.013,0.006,0.027,0.004,0.04,0.01c0.132,0.06,0.271,0.1,0.414,0.1c0.085,0,0.17-0.013,0.253-0.035
		c0.026-0.007,0.049-0.019,0.074-0.028c0.043-0.015,0.088-0.026,0.129-0.048l84.159-43.158c0.333-0.171,0.543-0.515,0.543-0.89
		V44.714C565.799,44.535,565.799,43.891,565.799,43.711z M528.109,44.196l-13.068,6.64l-0.002-12.287l0-1.103L528.109,44.196z
		 M512.435,20.304l0.001,12.69l-12.573-6.434L512.435,20.304z M494.366,25.999l-13.735,7.11l-0.001-14.094L494.366,25.999z
		 M430.662,43.627l47.968-24.799l0.001,15.314l-33.029,17.098L430.662,43.627z M479.874,68.704l-13.684-6.973l46.848-24.281
		l0.001,14.403L479.874,68.704z M563.799,128.417L481.64,170.55V88.485l82.159-42.134V128.417z"/>
	<path fill="#FFFFFF" d="M433.834,111.723c-0.001-0.377-0.214-0.721-0.55-0.89l-51.91-26.18c-0.286-0.145-0.624-0.144-0.91,0.005
		l-15.799,8.178l-0.002-15.582c0.048-0.119,0.082-0.244,0.081-0.376c-0.002-0.376-0.214-0.719-0.55-0.888l-15.61-7.873
		c-0.284-0.143-0.619-0.143-0.903,0.001l-84.159,42.716c-0.091,0.046-0.17,0.107-0.241,0.176c-0.015,0.015-0.026,0.033-0.04,0.049
		c-0.064,0.07-0.116,0.148-0.157,0.233c-0.014,0.029-0.027,0.057-0.039,0.088c-0.041,0.11-0.07,0.224-0.07,0.345c0,0,0,0,0,0.001
		c0,0,0,0,0,0v46.746l2,0.982v-46.096l48.431,24.678l0.022,68.184c0,0.119,0.028,0.232,0.067,0.34
		c-0.018,0.074-0.032,0.15-0.032,0.228c0,0.377,0.21,0.721,0.546,0.892l17.055,8.69c0.143,0.073,0.299,0.109,0.454,0.109
		c0.182,0,0.362-0.05,0.522-0.147c0.296-0.182,0.478-0.504,0.478-0.853l0.005-17.348c0,0,0,0,0-0.001l0.016-50.346l15.135,7.712
		v82.419l-45.165-23.014v2.245l45.711,23.292c0.143,0.073,0.299,0.109,0.454,0.109c0.182,0,0.363-0.05,0.522-0.147
		c0.141-0.086,0.253-0.206,0.335-0.343l83.759-42.953c0.333-0.171,0.543-0.515,0.543-0.89V111.9c0-0.031-0.009-0.06-0.012-0.091
		C433.825,111.78,433.835,111.752,433.834,111.723z M396.144,112.207l-13.069,6.64l-0.002-13.389L396.144,112.207z M313.247,119.453
		l-14.143-7.991l26.025-13.489l37.536-19.405l0.002,15.303L313.247,119.453z M330.519,213.296l-13.307-6.78l13.311-6.755
		L330.519,213.296z M331.087,145.262c-0.335,0.171-0.547,0.515-0.547,0.891c0,0.071,0.014,0.14,0.029,0.207
		c-0.007,0.049-0.029,0.092-0.029,0.143l-0.016,51.015l-15.096,7.66l-0.022-67.142l65.667-33.322l0.002,15.149L331.087,145.262z
		 M431.834,195.602l-82.16,42.133V155.67l82.16-42.133V195.602z"/>
	<path fill="#FFFFFF" d="M301.196,177.242l-83.418-40.969c0,0-0.409-0.204-1.066-0.204c-0.641,0-1.098,0.252-1.098,0.252
		l-82.664,41.492c-0.785,0.365-1.3,0.568-1.3,1.722v45.559c0,0.378,0.212,0.723,0.55,0.893l1.45,0.731v-2.239v-1.337v-42.758
		l82.699,41.706v81.96l-44.492-21.851v-0.05l-2-0.982v1.656c0,0.381,0.217,0.729,0.559,0.897l46.492,22.833
		c0.014,0.007,0.03,0.004,0.044,0.01c0.127,0.055,0.26,0.092,0.397,0.092c0.086,0,0.171-0.013,0.255-0.035
		c0.026-0.007,0.051-0.019,0.077-0.029c0.042-0.015,0.085-0.026,0.125-0.046l84.159-43.158c0.333-0.171,0.543-0.515,0.543-0.89
		v-83.792C302.509,177.642,301.708,177.503,301.196,177.242z M215.672,202.326l-48.105-24.261l11.016-5.529l37.09-17.754V202.326z
		 M216.841,152.213l0.011-0.005l0.015,0.007C216.859,152.213,216.85,152.215,216.841,152.213z M268.741,177.692l-0.126,0.065
		c-0.035-0.069-0.079-0.131-0.129-0.19L268.741,177.692z M217.672,202.878v-48.08l47.834,23.435L217.672,202.878z M300.509,261.885
		l-82.159,42.133v-82.065l82.159-42.133V261.885z"/>
	<path fill="#FFFFFF" d="M170.858,244.976c-0.001-0.377-0.214-0.721-0.55-0.89l-51.91-26.18c-0.286-0.145-0.624-0.144-0.91,0.005
		l-15.799,8.178l-0.002-15.582c0.048-0.119,0.082-0.244,0.081-0.376c-0.002-0.376-0.214-0.719-0.55-0.888l-15.61-7.873
		c-0.284-0.143-0.619-0.143-0.903,0.001L0.547,244.087c-0.091,0.046-0.17,0.107-0.241,0.176c-0.015,0.015-0.026,0.033-0.04,0.049
		c-0.064,0.07-0.116,0.148-0.157,0.233c-0.014,0.029-0.027,0.057-0.039,0.088c-0.041,0.11-0.07,0.224-0.07,0.345c0,0,0,0,0,0.001
		c0,0,0,0,0,0v84.663c0,0.376,0.211,0.721,0.546,0.891l84.699,43.158c0.143,0.073,0.299,0.109,0.454,0.109
		c0.182,0,0.363-0.05,0.522-0.147c0.141-0.086,0.253-0.206,0.335-0.343l83.759-42.953c0.333-0.171,0.543-0.515,0.543-0.89v-84.313
		c0-0.031-0.009-0.06-0.012-0.091C170.849,245.033,170.859,245.006,170.858,244.976z M133.168,245.46L120.1,252.1l-0.002-13.389
		L133.168,245.46z M118.098,237.968l0.002,15.149l-49.988,25.398c-0.335,0.171-0.547,0.515-0.547,0.891
		c0,0.071,0.014,0.14,0.029,0.207c-0.007,0.049-0.029,0.092-0.029,0.143l-0.016,51.015l-15.096,7.66l-0.022-67.142L118.098,237.968z
		 M67.548,333.014l-0.004,13.535l-13.307-6.78L67.548,333.014z M99.69,227.125l-49.42,25.582l-14.143-7.991l26.025-13.489
		l37.536-19.405L99.69,227.125z M2,329.029v-82.418l48.431,24.678l0.022,68.184c0,0.119,0.028,0.232,0.067,0.34
		c-0.018,0.074-0.032,0.15-0.032,0.228c0,0.377,0.21,0.721,0.546,0.892l17.055,8.69c0.143,0.073,0.299,0.109,0.454,0.109
		c0.182,0,0.362-0.05,0.522-0.147c0.296-0.182,0.478-0.504,0.478-0.853l0.005-17.348c0,0,0,0,0-0.001l0.016-50.346l15.135,7.712
		v82.419L2,329.029z M168.858,328.856l-82.16,42.133v-82.065l82.16-42.133V328.856z"/>
	<path fill="#FFFFFF" d="M515.165,18.194"/>
</g>
</svg>
